if (_typeface_js && _typeface_js.loadFace) _typeface_js.loadFace({"glyphs":{"S":{"x_min":2,"x_max":694,"ha":764,"o":"m 694 190 l 599 190 l 599 90 l 102 90 l 102 185 l 2 185 l 2 286 l 201 286 l 201 190 l 497 190 l 497 383 l 102 383 l 102 483 l 2 483 l 2 683 l 98 683 l 98 782 l 497 782 l 497 688 l 595 688 l 595 588 l 399 588 l 399 683 l 201 683 l 201 490 l 595 490 l 595 390 l 694 390 l 694 190 "},"K":{"x_min":2,"x_max":694,"ha":764,"o":"m 694 90 l 399 90 l 399 187 l 301 187 l 301 290 l 203 290 l 203 90 l 2 90 l 2 782 l 198 782 l 198 490 l 295 490 l 295 588 l 393 588 l 393 686 l 495 686 l 495 782 l 694 782 l 694 686 l 599 686 l 599 588 l 501 588 l 501 490 l 399 490 l 399 390 l 495 390 l 495 291 l 595 291 l 595 191 l 694 191 l 694 90 "},"7":{"x_min":2,"x_max":694,"ha":764,"o":"m 694 585 l 599 585 l 599 488 l 501 488 l 501 389 l 402 389 l 402 90 l 203 90 l 203 389 l 295 389 l 295 488 l 393 488 l 393 585 l 497 585 l 497 683 l 203 683 l 203 585 l 2 585 l 2 782 l 694 782 l 694 585 "},"d":{"x_min":2,"x_max":694,"ha":764,"o":"m 694 288 l 599 288 l 599 190 l 500 190 l 500 90 l 2 90 l 2 782 l 495 782 l 495 687 l 595 687 l 595 589 l 694 589 l 694 288 m 495 288 l 495 589 l 396 589 l 396 683 l 201 683 l 201 190 l 400 190 l 400 288 l 495 288 "},"Y":{"x_min":51,"x_max":644,"ha":764,"o":"m 644 488 l 550 488 l 550 389 l 448 389 l 448 90 l 247 90 l 247 383 l 151 383 l 151 483 l 51 483 l 51 782 l 247 782 l 247 488 l 445 488 l 445 782 l 644 782 l 644 488 "},"E":{"x_min":6,"x_max":706,"ha":764,"o":"m 706 96 l 6 96 l 6 794 l 706 794 l 706 697 l 207 697 l 207 499 l 506 499 l 506 396 l 207 396 l 207 197 l 706 197 l 706 96 "},"y":{"x_min":51,"x_max":644,"ha":764,"o":"m 644 488 l 550 488 l 550 389 l 448 389 l 448 90 l 247 90 l 247 383 l 151 383 l 151 483 l 51 483 l 51 782 l 247 782 l 247 488 l 445 488 l 445 782 l 644 782 l 644 488 "},"g":{"x_min":2,"x_max":694,"ha":764,"o":"m 694 90 l 201 90 l 201 184 l 102 184 l 102 284 l 2 284 l 2 588 l 96 588 l 96 686 l 196 686 l 196 782 l 694 782 l 694 686 l 302 686 l 302 588 l 201 588 l 201 291 l 298 291 l 298 190 l 497 190 l 497 383 l 400 383 l 400 484 l 694 484 l 694 90 "},"e":{"x_min":6,"x_max":706,"ha":764,"o":"m 706 96 l 6 96 l 6 794 l 706 794 l 706 697 l 207 697 l 207 499 l 506 499 l 506 396 l 207 396 l 207 197 l 706 197 l 706 96 "},"J":{"x_min":2,"x_max":694,"ha":764,"o":"m 694 190 l 599 190 l 599 90 l 102 90 l 102 185 l 2 185 l 2 286 l 198 286 l 198 190 l 498 190 l 498 782 l 694 782 l 694 190 "},"ґ":{"x_min":0,"x_max":0,"ha":1389},"q":{"x_min":2,"x_max":694,"ha":764,"o":"m 694 292 l 598 292 l 598 191 l 694 191 l 694 90 l 598 90 l 598 187 l 501 187 l 501 90 l 102 90 l 102 184 l 2 184 l 2 683 l 96 683 l 96 782 l 598 782 l 598 691 l 694 691 l 694 292 m 495 389 l 495 683 l 201 683 l 201 191 l 397 191 l 397 292 l 300 292 l 300 389 l 495 389 "},"b":{"x_min":2,"x_max":694,"ha":764,"o":"m 694 190 l 599 190 l 599 90 l 2 90 l 2 782 l 595 782 l 595 688 l 694 688 l 694 488 l 597 488 l 597 390 l 694 390 l 694 190 m 495 488 l 495 683 l 201 683 l 201 488 l 495 488 m 495 190 l 495 387 l 201 387 l 201 190 l 495 190 "},"D":{"x_min":2,"x_max":694,"ha":764,"o":"m 694 288 l 599 288 l 599 190 l 500 190 l 500 90 l 2 90 l 2 782 l 495 782 l 495 687 l 595 687 l 595 589 l 694 589 l 694 288 m 495 288 l 495 589 l 396 589 l 396 683 l 201 683 l 201 190 l 400 190 l 400 288 l 495 288 "},"z":{"x_min":2,"x_max":694,"ha":764,"o":"m 694 588 l 599 588 l 599 488 l 501 488 l 501 386 l 400 386 l 400 286 l 299 286 l 299 191 l 694 191 l 694 90 l 2 90 l 2 286 l 96 286 l 96 386 l 197 386 l 197 488 l 295 488 l 295 588 l 397 588 l 397 681 l 2 681 l 2 782 l 694 782 l 694 588 "},"w":{"x_min":2,"x_max":694,"ha":764,"o":"m 694 90 l 498 90 l 498 184 l 400 184 l 400 288 l 302 288 l 302 190 l 203 190 l 203 90 l 2 90 l 2 782 l 198 782 l 198 487 l 299 487 l 299 584 l 400 584 l 400 487 l 495 487 l 495 782 l 694 782 l 694 90 "},"Q":{"x_min":2,"x_max":694,"ha":764,"o":"m 694 292 l 598 292 l 598 191 l 694 191 l 694 90 l 598 90 l 598 187 l 501 187 l 501 90 l 102 90 l 102 184 l 2 184 l 2 683 l 96 683 l 96 782 l 598 782 l 598 691 l 694 691 l 694 292 m 495 389 l 495 683 l 201 683 l 201 191 l 397 191 l 397 292 l 300 292 l 300 389 l 495 389 "},"M":{"x_min":2,"x_max":694,"ha":764,"o":"m 694 90 l 498 90 l 498 387 l 398 387 l 398 289 l 298 289 l 298 387 l 203 387 l 203 90 l 2 90 l 2 782 l 198 782 l 198 688 l 298 688 l 298 586 l 394 586 l 394 684 l 495 684 l 495 782 l 694 782 l 694 90 "},"C":{"x_min":2,"x_max":694,"ha":764,"o":"m 694 588 l 498 588 l 498 683 l 302 683 l 302 588 l 201 588 l 201 291 l 298 291 l 298 190 l 495 190 l 495 286 l 694 286 l 694 190 l 600 190 l 600 90 l 201 90 l 201 184 l 102 184 l 102 286 l 2 286 l 2 588 l 96 588 l 96 683 l 196 683 l 196 782 l 595 782 l 595 688 l 694 688 l 694 588 "},"L":{"x_min":-47,"x_max":546.046875,"ha":764,"o":"m 546 90 l -47 90 l -47 782 l 149 782 l 149 191 l 546 191 l 546 90 "},"!":{"x_min":33,"x_max":526,"ha":972,"o":"m 526 588 l 429 588 l 429 488 l 328 488 l 328 389 l 230 389 l 230 289 l 129 289 l 129 583 l 230 583 l 230 782 l 526 782 l 526 588 m 129 90 l 33 90 l 33 187 l 129 187 l 129 90 "}," ":{"x_min":0,"x_max":0,"ha":178},"X":{"x_min":2,"x_max":694,"ha":764,"o":"m 694 90 l 498 90 l 498 184 l 399 184 l 399 286 l 302 286 l 302 190 l 203 190 l 203 90 l 2 90 l 2 286 l 96 286 l 96 386 l 198 386 l 198 483 l 102 483 l 102 582 l 2 582 l 2 782 l 198 782 l 198 687 l 298 687 l 298 588 l 394 588 l 394 683 l 495 683 l 495 782 l 694 782 l 694 588 l 599 588 l 599 488 l 498 488 l 498 390 l 595 390 l 595 291 l 694 291 l 694 90 "},"P":{"x_min":2,"x_max":694,"ha":764,"o":"m 694 389 l 599 389 l 599 289 l 201 289 l 201 90 l 2 90 l 2 782 l 595 782 l 595 688 l 694 688 l 694 389 m 495 389 l 495 683 l 201 683 l 201 389 l 495 389 "},"T":{"x_min":-47,"x_max":546,"ha":764,"o":"m 546 686 l 352 686 l 352 90 l 153 90 l 153 681 l -47 681 l -47 782 l 546 782 l 546 686 "},"a":{"x_min":2,"x_max":694,"ha":764,"o":"m 694 90 l 495 90 l 495 288 l 201 288 l 201 90 l 2 90 l 2 584 l 96 584 l 96 683 l 196 683 l 196 782 l 495 782 l 495 687 l 595 687 l 595 589 l 694 589 l 694 90 m 495 389 l 495 589 l 396 589 l 396 683 l 295 683 l 295 584 l 201 584 l 201 389 l 495 389 "},"N":{"x_min":2,"x_max":694,"ha":764,"o":"m 694 90 l 498 90 l 498 185 l 400 185 l 400 285 l 298 285 l 298 387 l 203 387 l 203 90 l 2 90 l 2 782 l 198 782 l 198 688 l 298 688 l 298 589 l 400 589 l 400 488 l 495 488 l 495 782 l 694 782 l 694 90 "},"2":{"x_min":2,"x_max":694,"ha":764,"o":"m 694 487 l 599 487 l 599 386 l 500 386 l 500 291 l 299 291 l 299 191 l 694 191 l 694 90 l 2 90 l 2 291 l 96 291 l 96 386 l 196 386 l 196 487 l 394 487 l 394 587 l 497 587 l 497 683 l 203 683 l 203 587 l 2 587 l 2 683 l 96 683 l 96 782 l 595 782 l 595 687 l 694 687 l 694 487 "},"j":{"x_min":2,"x_max":694,"ha":764,"o":"m 694 190 l 599 190 l 599 90 l 102 90 l 102 185 l 2 185 l 2 286 l 198 286 l 198 190 l 498 190 l 498 782 l 694 782 l 694 190 "},"Z":{"x_min":2,"x_max":694,"ha":764,"o":"m 694 588 l 599 588 l 599 488 l 501 488 l 501 386 l 400 386 l 400 286 l 299 286 l 299 191 l 694 191 l 694 90 l 2 90 l 2 286 l 96 286 l 96 386 l 197 386 l 197 488 l 295 488 l 295 588 l 397 588 l 397 681 l 2 681 l 2 782 l 694 782 l 694 588 "},"1":{"x_min":90,"x_max":684,"ha":764,"o":"m 684 90 l 90 90 l 90 187 l 286 187 l 286 582 l 191 582 l 191 683 l 286 683 l 286 782 l 485 782 l 485 191 l 684 191 l 684 90 "},"u":{"x_min":2,"x_max":694,"ha":764,"o":"m 694 190 l 599 190 l 599 90 l 102 90 l 102 184 l 2 184 l 2 782 l 198 782 l 198 190 l 495 190 l 495 782 l 694 782 l 694 190 "},"k":{"x_min":2,"x_max":694,"ha":764,"o":"m 694 90 l 400 90 l 400 187 l 301 187 l 301 290 l 203 290 l 203 90 l 2 90 l 2 782 l 198 782 l 198 490 l 295 490 l 295 588 l 393 588 l 393 686 l 495 686 l 495 782 l 694 782 l 694 686 l 599 686 l 599 588 l 501 588 l 501 490 l 400 490 l 400 390 l 495 390 l 495 291 l 595 291 l 595 191 l 694 191 l 694 90 "},"t":{"x_min":-47,"x_max":546,"ha":764,"o":"m 546 686 l 352 686 l 352 90 l 153 90 l 153 681 l -47 681 l -47 782 l 546 782 l 546 686 "},"W":{"x_min":2,"x_max":694,"ha":764,"o":"m 694 90 l 498 90 l 498 184 l 400 184 l 400 288 l 302 288 l 302 190 l 203 190 l 203 90 l 2 90 l 2 782 l 198 782 l 198 487 l 299 487 l 299 584 l 400 584 l 400 487 l 495 487 l 495 782 l 694 782 l 694 90 "},"v":{"x_min":2,"x_max":694,"ha":764,"o":"m 694 387 l 597 387 l 597 288 l 498 288 l 498 190 l 398 190 l 398 90 l 298 90 l 298 185 l 198 185 l 198 284 l 99 284 l 99 383 l 2 383 l 2 782 l 198 782 l 198 491 l 298 491 l 298 387 l 394 387 l 394 484 l 495 484 l 495 782 l 694 782 l 694 387 "},"B":{"x_min":2,"x_max":694,"ha":764,"o":"m 694 190 l 599 190 l 599 90 l 2 90 l 2 782 l 595 782 l 595 688 l 694 688 l 694 488 l 597 488 l 597 390 l 694 390 l 694 190 m 495 488 l 495 683 l 201 683 l 201 488 l 495 488 m 495 190 l 495 387 l 201 387 l 201 190 l 495 190 "},"s":{"x_min":2,"x_max":694,"ha":764,"o":"m 694 190 l 599 190 l 599 90 l 102 90 l 102 185 l 2 185 l 2 286 l 201 286 l 201 190 l 497 190 l 497 383 l 102 383 l 102 483 l 2 483 l 2 683 l 98 683 l 98 782 l 497 782 l 497 688 l 595 688 l 595 588 l 399 588 l 399 683 l 201 683 l 201 490 l 595 490 l 595 390 l 694 390 l 694 190 "},"H":{"x_min":2,"x_max":694,"ha":764,"o":"m 694 90 l 498 90 l 498 387 l 203 387 l 203 90 l 2 90 l 2 782 l 198 782 l 198 488 l 495 488 l 495 782 l 694 782 l 694 90 "},"c":{"x_min":2,"x_max":694,"ha":764,"o":"m 694 588 l 498 588 l 498 683 l 302 683 l 302 588 l 201 588 l 201 291 l 298 291 l 298 190 l 495 190 l 495 286 l 694 286 l 694 190 l 600 190 l 600 90 l 201 90 l 201 184 l 102 184 l 102 286 l 2 286 l 2 588 l 96 588 l 96 683 l 196 683 l 196 782 l 595 782 l 595 688 l 694 688 l 694 588 "},"I":{"x_min":72,"x_max":665,"ha":764,"o":"m 665 90 l 72 90 l 72 187 l 268 187 l 268 681 l 72 681 l 72 782 l 665 782 l 665 686 l 469 686 l 469 191 l 665 191 l 665 90 "},"G":{"x_min":2,"x_max":694,"ha":764,"o":"m 694 90 l 201 90 l 201 184 l 102 184 l 102 284 l 2 284 l 2 588 l 96 588 l 96 686 l 196 686 l 196 782 l 694 782 l 694 686 l 302 686 l 302 588 l 201 588 l 201 291 l 298 291 l 298 190 l 497 190 l 497 383 l 400 383 l 400 484 l 694 484 l 694 90 "},"U":{"x_min":2,"x_max":694,"ha":764,"o":"m 694 190 l 599 190 l 599 90 l 102 90 l 102 184 l 2 184 l 2 782 l 198 782 l 198 190 l 495 190 l 495 782 l 694 782 l 694 190 "},"F":{"x_min":2,"x_max":693.671875,"ha":764,"o":"m 693 686 l 203 686 l 203 490 l 595 490 l 595 389 l 203 389 l 203 90 l 2 90 l 2 782 l 693 782 l 693 686 "},"r":{"x_min":2,"x_max":694,"ha":764,"o":"m 694 389 l 495 389 l 495 291 l 595 291 l 595 191 l 694 191 l 694 90 l 400 90 l 400 185 l 301 185 l 301 288 l 201 288 l 201 90 l 2 90 l 2 782 l 595 782 l 595 688 l 694 688 l 694 389 m 495 487 l 495 683 l 201 683 l 201 389 l 400 389 l 400 487 l 495 487 "},"x":{"x_min":2,"x_max":694,"ha":764,"o":"m 694 90 l 498 90 l 498 184 l 399 184 l 399 286 l 302 286 l 302 190 l 203 190 l 203 90 l 2 90 l 2 286 l 96 286 l 96 386 l 198 386 l 198 483 l 102 483 l 102 582 l 2 582 l 2 782 l 198 782 l 198 687 l 298 687 l 298 588 l 394 588 l 394 683 l 495 683 l 495 782 l 694 782 l 694 588 l 599 588 l 599 488 l 498 488 l 498 390 l 595 390 l 595 291 l 694 291 l 694 90 "},"V":{"x_min":2,"x_max":694,"ha":764,"o":"m 694 387 l 597 387 l 597 288 l 498 288 l 498 190 l 398 190 l 398 90 l 298 90 l 298 185 l 198 185 l 198 284 l 99 284 l 99 383 l 2 383 l 2 782 l 198 782 l 198 491 l 298 491 l 298 387 l 394 387 l 394 484 l 495 484 l 495 782 l 694 782 l 694 387 "},"h":{"x_min":2,"x_max":694,"ha":764,"o":"m 694 90 l 498 90 l 498 387 l 203 387 l 203 90 l 2 90 l 2 782 l 198 782 l 198 488 l 495 488 l 495 782 l 694 782 l 694 90 "},"0":{"x_min":1,"x_max":694,"ha":764,"o":"m 694 289 l 599 289 l 599 190 l 500 190 l 500 90 l 200 90 l 200 184 l 102 184 l 102 285 l 1 285 l 1 585 l 96 585 l 96 683 l 196 683 l 196 782 l 495 782 l 495 687 l 595 687 l 595 589 l 694 589 l 694 289 m 495 190 l 495 589 l 396 589 l 396 683 l 200 683 l 200 285 l 301 285 l 301 190 l 495 190 "},"f":{"x_min":2,"x_max":693.671875,"ha":764,"o":"m 693 686 l 203 686 l 203 490 l 595 490 l 595 389 l 203 389 l 203 90 l 2 90 l 2 782 l 693 782 l 693 686 "},"i":{"x_min":72,"x_max":665,"ha":764,"o":"m 665 90 l 72 90 l 72 187 l 268 187 l 268 681 l 72 681 l 72 782 l 665 782 l 665 686 l 469 686 l 469 191 l 665 191 l 665 90 "},"6":{"x_min":2,"x_max":694,"ha":764,"o":"m 694 190 l 599 190 l 599 90 l 102 90 l 102 188 l 2 188 l 2 588 l 96 588 l 96 686 l 196 686 l 196 782 l 595 782 l 595 686 l 302 686 l 302 588 l 201 588 l 201 490 l 595 490 l 595 390 l 694 390 l 694 190 m 495 190 l 495 386 l 201 386 l 201 190 l 495 190 "},"A":{"x_min":2,"x_max":694,"ha":764,"o":"m 694 90 l 495 90 l 495 288 l 201 288 l 201 90 l 2 90 l 2 584 l 96 584 l 96 683 l 196 683 l 196 782 l 495 782 l 495 687 l 595 687 l 595 589 l 694 589 l 694 90 m 495 389 l 495 589 l 396 589 l 396 683 l 295 683 l 295 584 l 201 584 l 201 389 l 495 389 "},"O":{"x_min":2,"x_max":694,"ha":764,"o":"m 694 190 l 599 190 l 599 90 l 102 90 l 102 184 l 2 184 l 2 683 l 96 683 l 96 782 l 595 782 l 595 687 l 694 687 l 694 190 m 495 190 l 495 683 l 201 683 l 201 190 l 495 190 "},"n":{"x_min":2,"x_max":694,"ha":764,"o":"m 694 90 l 498 90 l 498 185 l 400 185 l 400 285 l 298 285 l 298 387 l 203 387 l 203 90 l 2 90 l 2 782 l 198 782 l 198 688 l 298 688 l 298 589 l 400 589 l 400 488 l 495 488 l 495 782 l 694 782 l 694 90 "},"3":{"x_min":2,"x_max":695,"ha":764,"o":"m 695 190 l 599 190 l 599 90 l 102 90 l 102 185 l 2 185 l 2 286 l 198 286 l 198 190 l 498 190 l 498 383 l 198 383 l 198 484 l 295 484 l 295 588 l 396 588 l 396 681 l 102 681 l 102 782 l 695 782 l 695 686 l 599 686 l 599 588 l 498 588 l 498 490 l 592 490 l 592 390 l 695 390 l 695 190 "},"9":{"x_min":2,"x_max":694,"ha":764,"o":"m 694 286 l 599 286 l 599 187 l 501 187 l 501 90 l 102 90 l 102 187 l 393 187 l 393 286 l 497 286 l 497 383 l 102 383 l 102 483 l 2 483 l 2 683 l 96 683 l 96 782 l 595 782 l 595 685 l 694 685 l 694 286 m 497 487 l 497 683 l 201 683 l 201 487 l 497 487 "},"m":{"x_min":2,"x_max":694,"ha":764,"o":"m 694 90 l 498 90 l 498 387 l 398 387 l 398 289 l 298 289 l 298 387 l 203 387 l 203 90 l 2 90 l 2 782 l 198 782 l 198 688 l 298 688 l 298 586 l 394 586 l 394 684 l 495 684 l 495 782 l 694 782 l 694 90 "},"8":{"x_min":2,"x_max":694,"ha":764,"o":"m 694 190 l 599 190 l 599 90 l 102 90 l 102 185 l 2 185 l 2 386 l 96 386 l 96 483 l 2 483 l 2 683 l 96 683 l 96 782 l 495 782 l 495 688 l 595 688 l 595 488 l 495 488 l 495 390 l 694 390 l 694 190 m 495 488 l 495 683 l 201 683 l 201 582 l 301 582 l 301 488 l 495 488 m 495 190 l 495 292 l 301 292 l 301 386 l 102 386 l 102 190 l 495 190 "},"l":{"x_min":-47,"x_max":546.046875,"ha":764,"o":"m 546 90 l -47 90 l -47 782 l 149 782 l 149 191 l 546 191 l 546 90 "},"4":{"x_min":2,"x_max":693.671875,"ha":764,"o":"m 693 288 l 595 288 l 595 90 l 396 90 l 396 285 l 2 285 l 2 485 l 96 485 l 96 584 l 196 584 l 196 683 l 295 683 l 295 782 l 595 782 l 595 389 l 693 389 l 693 288 m 396 389 l 396 584 l 295 584 l 295 485 l 201 485 l 201 389 l 396 389 "},"p":{"x_min":2,"x_max":694,"ha":764,"o":"m 694 389 l 599 389 l 599 289 l 201 289 l 201 90 l 2 90 l 2 782 l 595 782 l 595 688 l 694 688 l 694 389 m 495 389 l 495 683 l 201 683 l 201 389 l 495 389 "},"R":{"x_min":2,"x_max":694,"ha":764,"o":"m 694 389 l 495 389 l 495 291 l 595 291 l 595 191 l 694 191 l 694 90 l 400 90 l 400 185 l 301 185 l 301 288 l 201 288 l 201 90 l 2 90 l 2 782 l 595 782 l 595 688 l 694 688 l 694 389 m 495 487 l 495 683 l 201 683 l 201 389 l 400 389 l 400 487 l 495 487 "},"5":{"x_min":2,"x_max":694,"ha":764,"o":"m 694 190 l 599 190 l 599 90 l 102 90 l 102 185 l 2 185 l 2 286 l 201 286 l 201 190 l 497 190 l 497 483 l 2 483 l 2 782 l 595 782 l 595 686 l 201 686 l 201 589 l 595 589 l 595 490 l 694 490 l 694 190 "},"o":{"x_min":2,"x_max":694,"ha":764,"o":"m 694 190 l 599 190 l 599 90 l 102 90 l 102 184 l 2 184 l 2 683 l 96 683 l 96 782 l 595 782 l 595 687 l 694 687 l 694 190 m 495 190 l 495 683 l 201 683 l 201 190 l 495 190 "}}}
